<svg version="1.1" id="Layer_1" xmlns="http://www.w3.org/2000/svg" xmlns:xlink="http://www.w3.org/1999/xlink" x="0px" y="0px"
	 width="100%" viewBox="0 0 500 500" enable-background="new 0 0 500 500" xml:space="preserve">
<path fill="#FFFFFF" opacity="1.000000" stroke="none" 
	d="
M225.000000,501.000000 
	C150.000015,501.000000 75.500038,501.000000 1.000040,501.000000 
	C1.000027,334.333405 1.000027,167.666779 1.000013,1.000129 
	C167.666565,1.000086 334.333130,1.000086 500.999756,1.000043 
	C500.999847,167.666534 500.999847,334.333069 500.999939,500.999817 
	C409.166656,501.000000 317.333344,501.000000 225.000000,501.000000 
M251.009079,244.247940 
	C251.053619,243.243652 251.098160,242.239380 251.882248,241.354401 
	C258.755585,241.514679 265.944733,243.061081 272.444092,241.580154 
	C293.505707,236.781235 305.734802,215.457474 300.241089,194.812256 
	C294.595673,173.596756 273.654205,161.250565 252.766510,167.177521 
	C237.654877,171.465500 228.808365,181.970673 224.000992,196.992142 
	C197.874939,196.994308 171.748901,196.987640 145.622849,197.003113 
	C135.396088,197.009171 130.229111,202.040115 130.210861,212.257797 
	C130.157013,242.377548 130.158981,272.497528 130.209656,302.617279 
	C130.226868,312.842621 135.416946,317.972717 145.571335,317.993408 
	C162.711243,318.028381 179.851257,318.014374 197.262253,318.921051 
	C197.285706,323.081940 197.519028,327.255676 197.264648,331.399506 
	C197.069473,334.578735 198.077240,336.079407 201.248398,336.996185 
	C231.285919,345.680023 261.713928,350.281189 292.869293,344.840485 
	C303.111359,343.051880 313.107727,339.772095 323.131042,336.878265 
	C325.438873,336.211945 328.153778,335.371704 328.095001,331.645996 
	C327.879761,317.999725 328.470245,304.321991 327.775208,290.706207 
	C326.564087,266.980408 307.144348,247.523483 283.396149,245.893127 
	C272.632935,245.154205 261.810852,245.272888 251.009079,244.247940 
M391.980072,282.478485 
	C391.972534,273.325928 392.151520,264.168671 391.920868,255.021744 
	C391.337433,231.885513 376.447784,211.904007 354.212555,207.765442 
	C340.052429,205.129883 325.229431,206.055511 310.896851,205.393250 
	C307.399139,224.061035 307.382629,224.098434 296.351105,238.937866 
	C327.533295,250.857559 339.658997,274.673035 337.626312,306.919891 
	C352.687073,306.190643 366.615692,304.191803 380.108643,299.730988 
	C392.005188,295.797913 391.980164,295.722260 391.980072,282.478485 
M332.752441,126.539558 
	C310.989990,123.557121 291.748688,138.019531 288.567780,159.550049 
	C288.086487,162.807907 288.927063,164.772903 291.542847,166.705688 
	C300.561615,173.369522 307.220001,182.092484 308.873840,193.193466 
	C309.921967,200.228989 314.033783,201.997635 319.405762,202.682114 
	C323.979187,203.264862 328.818268,203.470688 333.316437,202.637390 
	C351.717041,199.228653 364.948578,183.500046 365.051605,165.558121 
	C365.163483,146.077515 352.640869,130.617371 332.752441,126.539558 
z"/>
<path fill="#342A80" opacity="1.000000" stroke="none" 
	d="
M196.991226,318.020935 
	C179.851257,318.014374 162.711243,318.028381 145.571335,317.993408 
	C135.416946,317.972717 130.226868,312.842621 130.209656,302.617279 
	C130.158981,272.497528 130.157013,242.377548 130.210861,212.257797 
	C130.229111,202.040115 135.396088,197.009171 145.622849,197.003113 
	C171.748901,196.987640 197.874939,196.994308 224.934967,196.999451 
	C229.690506,197.003555 233.513748,196.925400 237.333237,197.012466 
	C245.700104,197.203171 250.951218,202.538849 251.000977,210.833496 
	C251.061783,220.967285 251.096619,231.101227 251.142685,241.235092 
	C251.098160,242.239380 251.053619,243.243652 250.979462,245.091888 
	C250.967819,264.925659 251.002457,283.915497 250.997009,302.905304 
	C250.994125,312.929504 245.962814,317.973572 235.968018,317.996826 
	C222.975815,318.027039 209.983490,318.014893 196.991226,318.020935 
M188.549789,275.346680 
	C189.093033,279.360107 192.097610,280.534363 195.434830,280.924805 
	C198.055130,281.231323 200.741058,281.059418 203.394577,280.984558 
	C212.931717,280.715546 218.637527,271.401550 214.939087,262.632965 
	C214.002960,260.413513 213.820602,257.655975 214.038895,255.212402 
	C214.618713,248.722397 211.669739,245.145554 205.105011,245.006836 
	C203.777725,244.978790 202.449051,244.984207 201.121521,245.005722 
	C192.481644,245.145676 186.943604,251.941528 188.003189,260.545776 
	C188.385498,263.650360 187.580673,266.886353 187.561462,270.063873 
	C187.555542,271.042389 188.357452,272.025787 188.837357,273.668365 
	C188.915222,274.103027 188.993088,274.537659 188.549789,275.346680 
M155.036789,240.947678 
	C155.036789,240.947678 155.182968,240.789490 155.129654,241.517471 
	C155.672150,242.298294 156.055939,243.534286 156.782364,243.787537 
	C162.312302,245.715530 162.865921,250.318985 162.971985,255.081894 
	C163.097992,260.741119 162.956619,266.405762 163.015701,272.067139 
	C163.071289,277.393341 166.623657,281.034515 171.577774,280.979736 
	C176.610931,280.924072 179.941422,277.383301 179.985931,271.911407 
	C180.036057,265.750214 179.917999,259.586823 180.029633,253.427231 
	C180.098389,249.633392 181.020523,246.280457 184.998596,244.438766 
	C188.888763,242.637772 191.807068,239.658371 190.757629,235.048203 
	C189.653748,230.198807 185.785156,228.150208 181.041977,228.042511 
	C174.717117,227.898926 168.384705,227.913895 162.058990,228.037292 
	C157.317322,228.129791 153.515991,230.131805 152.282776,234.958725 
	C151.695068,237.259125 150.808517,240.616440 155.036789,240.947678 
z"/>
<path fill="#555DAF" opacity="1.000000" stroke="none" 
	d="
M197.126740,318.471008 
	C209.983490,318.014893 222.975815,318.027039 235.968018,317.996826 
	C245.962814,317.973572 250.994125,312.929504 250.997009,302.905304 
	C251.002457,283.915497 250.967819,264.925659 250.982651,245.469177 
	C261.810852,245.272888 272.632935,245.154205 283.396149,245.893127 
	C307.144348,247.523483 326.564087,266.980408 327.775208,290.706207 
	C328.470245,304.321991 327.879761,317.999725 328.095001,331.645996 
	C328.153778,335.371704 325.438873,336.211945 323.131042,336.878265 
	C313.107727,339.772095 303.111359,343.051880 292.869293,344.840485 
	C261.713928,350.281189 231.285919,345.680023 201.248398,336.996185 
	C198.077240,336.079407 197.069473,334.578735 197.264648,331.399506 
	C197.519028,327.255676 197.285706,323.081940 197.126740,318.471008 
z"/>
<path fill="#555DAF" opacity="1.000000" stroke="none" 
	d="
M391.980103,282.972565 
	C391.980164,295.722260 392.005188,295.797913 380.108643,299.730988 
	C366.615692,304.191803 352.687073,306.190643 337.626312,306.919891 
	C339.658997,274.673035 327.533295,250.857559 296.351105,238.937866 
	C307.382629,224.098434 307.399139,224.061035 310.896851,205.393250 
	C325.229431,206.055511 340.052429,205.129883 354.212555,207.765442 
	C376.447784,211.904007 391.337433,231.885513 391.920868,255.021744 
	C392.151520,264.168671 391.972534,273.325928 391.980103,282.972565 
z"/>
<path fill="#555DAF" opacity="1.000000" stroke="none" 
	d="
M333.173248,126.630424 
	C352.640869,130.617371 365.163483,146.077515 365.051605,165.558121 
	C364.948578,183.500046 351.717041,199.228653 333.316437,202.637390 
	C328.818268,203.470688 323.979187,203.264862 319.405762,202.682114 
	C314.033783,201.997635 309.921967,200.228989 308.873840,193.193466 
	C307.220001,182.092484 300.561615,173.369522 291.542847,166.705688 
	C288.927063,164.772903 288.086487,162.807907 288.567780,159.550049 
	C291.748688,138.019531 310.989990,123.557121 333.173248,126.630424 
z"/>
<path fill="#555DAF" opacity="1.000000" stroke="none" 
	d="
M251.512466,241.294739 
	C251.096619,231.101227 251.061783,220.967285 251.000977,210.833496 
	C250.951218,202.538849 245.700104,197.203171 237.333237,197.012466 
	C233.513748,196.925400 229.690506,197.003555 225.398560,196.975189 
	C228.808365,181.970673 237.654877,171.465500 252.766510,167.177521 
	C273.654205,161.250565 294.595673,173.596756 300.241089,194.812256 
	C305.734802,215.457474 293.505707,236.781235 272.444092,241.580154 
	C265.944733,243.061081 258.755585,241.514679 251.512466,241.294739 
z"/>
<path fill="#3F3688" opacity="1.000000" stroke="none" 
	d="
M155.217941,240.832092 
	C150.808517,240.616440 151.695068,237.259125 152.282776,234.958725 
	C153.515991,230.131805 157.317322,228.129791 162.058990,228.037292 
	C168.384705,227.913895 174.717117,227.898926 181.041977,228.042511 
	C185.785156,228.150208 189.653748,230.198807 190.757629,235.048203 
	C191.807068,239.658371 188.888763,242.637772 184.998596,244.438766 
	C181.020523,246.280457 180.098389,249.633392 180.029633,253.427231 
	C179.917999,259.586823 180.036057,265.750214 179.985931,271.911407 
	C179.941422,277.383301 176.610931,280.924072 171.577774,280.979736 
	C166.623657,281.034515 163.071289,277.393341 163.015701,272.067139 
	C162.956619,266.405762 163.097992,260.741119 162.971985,255.081894 
	C162.865921,250.318985 162.312302,245.715530 156.782364,243.787537 
	C156.055939,243.534286 155.672150,242.298294 155.596436,241.244522 
	C159.312622,240.971573 162.562012,240.971573 166.039124,240.971573 
	C166.039124,252.347076 166.125580,262.821442 165.988098,273.292908 
	C165.945084,276.568390 166.735977,278.009216 170.413376,278.119904 
	C174.985580,278.257538 176.913559,276.811890 176.363464,272.145325 
	C176.092636,269.847778 176.320389,267.491669 176.320557,265.162048 
	C176.321091,257.235321 176.320755,249.308594 176.320755,240.908295 
	C180.300262,240.908295 183.542801,240.908295 186.605072,240.908295 
	C186.605072,237.683502 186.605072,234.965546 186.605072,232.477203 
	C175.992157,232.477203 165.777328,232.477203 155.217941,232.477203 
	C155.217941,235.538437 155.217941,238.185272 155.217941,240.832092 
z"/>
<path fill="#F7F7FA" opacity="1.000000" stroke="none" 
	d="
M189.070953,274.972321 
	C188.993088,274.537659 188.915222,274.103027 189.054047,273.081329 
	C190.263474,271.001526 191.256180,269.508759 192.216309,268.065002 
	C195.626846,268.561462 198.577011,272.613708 202.723038,268.341522 
	C196.581650,264.537598 186.142700,263.215485 192.053741,252.524155 
	C194.903366,247.370026 204.201157,246.816254 211.910675,250.706192 
	C210.861740,252.700638 209.816467,254.688126 208.913986,256.404083 
	C206.580612,255.944046 204.804169,255.593811 202.664490,255.154221 
	C201.523254,255.678421 200.745224,256.291962 199.967194,256.905487 
	C200.981842,257.550354 201.996490,258.195190 203.346680,258.973022 
	C204.602112,259.468567 205.541321,259.789154 206.438599,260.201111 
	C210.352081,261.997772 212.933838,264.655334 212.426575,269.373505 
	C211.899567,274.275452 208.751740,276.394348 204.326721,277.412506 
	C198.878464,278.666138 193.878250,277.520508 189.070953,274.972321 
z"/>
<path fill="#3F3688" opacity="1.000000" stroke="none" 
	d="
M203.027710,255.243561 
	C204.804169,255.593811 206.580612,255.944046 208.913986,256.404083 
	C209.816467,254.688126 210.861740,252.700638 211.910675,250.706192 
	C204.201157,246.816254 194.903366,247.370026 192.053741,252.524155 
	C186.142700,263.215485 196.581650,264.537598 202.723038,268.341522 
	C198.577011,272.613708 195.626846,268.561462 192.216309,268.065002 
	C191.256180,269.508759 190.263474,271.001526 189.030090,272.750610 
	C188.357452,272.025787 187.555542,271.042389 187.561462,270.063873 
	C187.580673,266.886353 188.385498,263.650360 188.003189,260.545776 
	C186.943604,251.941528 192.481644,245.145676 201.121521,245.005722 
	C202.449051,244.984207 203.777725,244.978790 205.105011,245.006836 
	C211.669739,245.145554 214.618713,248.722397 214.038895,255.212402 
	C213.820602,257.655975 214.002960,260.413513 214.939087,262.632965 
	C218.637527,271.401550 212.931717,280.715546 203.394577,280.984558 
	C200.741058,281.059418 198.055130,281.231323 195.434830,280.924805 
	C192.097610,280.534363 189.093033,279.360107 188.810364,275.159485 
	C193.878250,277.520508 198.878464,278.666138 204.326721,277.412506 
	C208.751740,276.394348 211.899567,274.275452 212.426575,269.373505 
	C212.933838,264.655334 210.352081,261.997772 206.438599,260.201111 
	C205.541321,259.789154 204.602112,259.468567 203.337982,258.613525 
	C203.005081,257.161926 203.016388,256.202728 203.027710,255.243561 
z"/>
<path fill="#FCFCFD" opacity="1.000000" stroke="none" 
	d="
M155.127365,240.889893 
	C155.217941,238.185272 155.217941,235.538437 155.217941,232.477203 
	C165.777328,232.477203 175.992157,232.477203 186.605072,232.477203 
	C186.605072,234.965546 186.605072,237.683502 186.605072,240.908295 
	C183.542801,240.908295 180.300262,240.908295 176.320755,240.908295 
	C176.320755,249.308594 176.321091,257.235321 176.320557,265.162048 
	C176.320389,267.491669 176.092636,269.847778 176.363464,272.145325 
	C176.913559,276.811890 174.985580,278.257538 170.413376,278.119904 
	C166.735977,278.009216 165.945084,276.568390 165.988098,273.292908 
	C166.125580,262.821442 166.039124,252.347076 166.039124,240.971573 
	C162.562012,240.971573 159.312622,240.971573 155.623093,240.880524 
	C155.182968,240.789490 155.036789,240.947678 155.127365,240.889893 
z"/>
<path fill="#555DAF" opacity="1.000000" stroke="none" 
	d="
M202.664490,255.154221 
	C203.016388,256.202728 203.005081,257.161926 203.002472,258.480591 
	C201.996490,258.195190 200.981842,257.550354 199.967194,256.905487 
	C200.745224,256.291962 201.523254,255.678421 202.664490,255.154221 
z"/>
</svg>